<svg width="40" height="41" viewBox="0 0 40 41" fill="none" xmlns="http://www.w3.org/2000/svg">
<path fill-rule="evenodd" clip-rule="evenodd" d="M39.0237 5.89226C40.3254 4.59051 40.3254 2.47996 39.0237 1.17821C37.7219 -0.123533 35.6114 -0.123533 34.3096 1.17822L20 15.4879L5.69036 1.17822C4.38861 -0.123529 2.27806 -0.123529 0.976311 1.17822C-0.325437 2.47997 -0.325437 4.59052 0.976311 5.89226L15.286 20.2019L0.976311 34.5115C-0.325437 35.8133 -0.325437 37.9238 0.976311 39.2256C2.27806 40.5273 4.38861 40.5273 5.69036 39.2256L20 24.916L34.3096 39.2256C35.6114 40.5273 37.7219 40.5273 39.0237 39.2256C40.3254 37.9238 40.3254 35.8133 39.0237 34.5115L24.714 20.2019L39.0237 5.89226Z" fill="#000814"/>
</svg>
